<svg viewBox="0 0 47.625 44.979" xmlns="http://www.w3.org/2000/svg"><g stroke-width=".265"><path d="M34.396 0H31.75v5.292h2.646zm7.938 5.292H31.75v2.646h10.584zm5.291 2.646H31.75v5.291h15.875zm-7.937 5.291H31.75v5.292h7.938zm0 5.292H10.584V31.75h29.104zM13.23 31.75h-2.646v10.583h2.646zm21.167 0H31.75v10.583h2.646z" fill="#eec279"/><path d="M39.688 2.646h-5.292v2.646h5.292zM31.75 5.292h-2.645v5.291h2.646zm0 5.291H26.46v5.292h5.292zm0 5.292H21.169v2.646H31.75zM2.648 26.458H0v5.292h2.646zm2.645 2.646H2.647v5.292h2.645zm2.646-7.938H5.292v13.23h2.646zm2.646-2.646H7.938v13.23h2.646z" fill="#7f532f"/><path d="M39.688 0h-2.646v2.646h2.646zM18.521 31.75h-2.646v10.583h2.646zm21.167 0h-2.646v10.583h2.646z" fill="#be944b"/><path d="M39.688 7.938h-2.646v2.645h2.646zM18.521 42.333h-2.646v2.646h2.646zm-5.292 0h-2.645v2.646h2.645zm21.167 0h-2.645v2.646h2.645zm5.292 0h-2.646v2.646h2.646z"/></g></svg>